<svg width="44" height="44" viewBox="0 0 44 44" fill="none" xmlns="http://www.w3.org/2000/svg">
<rect width="44" height="44" rx="10" fill="#FF8B42"/>
<path d="M27 13.5001C27 13.3674 26.9473 13.2403 26.8536 13.1465C26.7598 13.0527 26.6326 13.0001 26.5 13.0001H24C22.7411 12.9373 21.5086 13.3754 20.5717 14.2186C19.6348 15.0618 19.0698 16.2415 19 17.5001V20.2001H16.5C16.3674 20.2001 16.2402 20.2527 16.1464 20.3465C16.0527 20.4403 16 20.5674 16 20.7001V23.3001C16 23.4327 16.0527 23.5598 16.1464 23.6536C16.2402 23.7474 16.3674 23.8001 16.5 23.8001H19V30.5001C19 30.6327 19.0527 30.7598 19.1464 30.8536C19.2402 30.9474 19.3674 31.0001 19.5 31.0001H22.5C22.6326 31.0001 22.7598 30.9474 22.8536 30.8536C22.9473 30.7598 23 30.6327 23 30.5001V23.8001H25.62C25.7312 23.8016 25.8397 23.7661 25.9285 23.6991C26.0172 23.6321 26.0811 23.5374 26.11 23.4301L26.83 20.8301C26.8499 20.7562 26.8526 20.6787 26.8378 20.6036C26.8231 20.5286 26.7913 20.4579 26.7449 20.397C26.6985 20.3362 26.6388 20.2868 26.5704 20.2526C26.5019 20.2185 26.4265 20.2005 26.35 20.2001H23V17.5001C23.0249 17.2525 23.1411 17.0232 23.326 16.8567C23.5109 16.6903 23.7512 16.5988 24 16.6001H26.5C26.6326 16.6001 26.7598 16.5474 26.8536 16.4536C26.9473 16.3598 27 16.2327 27 16.1001V13.5001Z" fill="white"/>
</svg>
