<svg width="76" height="76" viewBox="0 0 76 76" fill="none" xmlns="http://www.w3.org/2000/svg">
<path d="M25.3333 37.9999C25.3318 37.26 25.5895 36.5429 26.0616 35.9732L41.8949 16.9732C42.4324 16.3265 43.2048 15.9198 44.0422 15.8426C44.8795 15.7654 45.7133 16.024 46.3599 16.5615C47.0066 17.099 47.4133 17.8714 47.4905 18.7088C47.5677 19.5461 47.3091 20.3798 46.7716 21.0265L32.5849 37.9999L46.2649 54.9732C46.528 55.2971 46.7244 55.6698 46.8429 56.0699C46.9615 56.47 46.9998 56.8895 46.9556 57.3044C46.9115 57.7194 46.7858 58.1215 46.5857 58.4877C46.3857 58.8538 46.1152 59.1769 45.7899 59.4382C45.4643 59.7282 45.0824 59.9478 44.6679 60.0833C44.2535 60.2189 43.8155 60.2673 43.3815 60.2257C42.9475 60.1841 42.5267 60.0533 42.1456 59.8415C41.7644 59.6297 41.4312 59.3414 41.1666 58.9949L25.8716 39.9949C25.4741 39.4088 25.2846 38.7063 25.3333 37.9999Z" fill="white"/>
</svg>
