<svg width="44" height="44" viewBox="0 0 44 44" fill="none" xmlns="http://www.w3.org/2000/svg">
<rect width="44" height="44" rx="10" fill="#FF8B42"/>
<path d="M25.15 18.4002C24.3836 18.3976 23.6242 18.5461 22.9152 18.8373C22.2062 19.1284 21.5616 19.5566 21.0182 20.0971C20.4749 20.6377 20.0434 21.2801 19.7486 21.9876C19.4538 22.6951 19.3014 23.4537 19.3 24.2202V30.1002C19.3 30.3389 19.3949 30.5678 19.5637 30.7366C19.7324 30.9054 19.9614 31.0002 20.2 31.0002H22.3C22.5387 31.0002 22.7677 30.9054 22.9364 30.7366C23.1052 30.5678 23.2 30.3389 23.2 30.1002V24.2202C23.1999 23.9476 23.2571 23.678 23.3681 23.429C23.4791 23.18 23.6413 22.9572 23.8441 22.7751C24.047 22.593 24.2859 22.4557 24.5454 22.3722C24.8049 22.2886 25.0791 22.2607 25.35 22.2902C25.8361 22.3514 26.2827 22.5888 26.6053 22.9575C26.9278 23.3261 27.1039 23.8003 27.1 24.2902V30.1002C27.1 30.3389 27.1949 30.5678 27.3637 30.7366C27.5324 30.9054 27.7614 31.0002 28 31.0002H30.1C30.3387 31.0002 30.5677 30.9054 30.7364 30.7366C30.9052 30.5678 31 30.3389 31 30.1002V24.2202C30.9987 23.4537 30.8463 22.6951 30.5515 21.9876C30.2567 21.2801 29.8252 20.6377 29.2819 20.0971C28.7385 19.5566 28.0939 19.1284 27.3849 18.8373C26.6759 18.5461 25.9165 18.3976 25.15 18.4002Z" fill="white"/>
<path d="M16.6 19.3H13.9C13.4029 19.3 13 19.703 13 20.2V30.1C13 30.5971 13.4029 31 13.9 31H16.6C17.0971 31 17.5 30.5971 17.5 30.1V20.2C17.5 19.703 17.0971 19.3 16.6 19.3Z" fill="white"/>
<path d="M15.25 17.5C16.4926 17.5 17.5 16.4926 17.5 15.25C17.5 14.0074 16.4926 13 15.25 13C14.0074 13 13 14.0074 13 15.25C13 16.4926 14.0074 17.5 15.25 17.5Z" fill="white"/>
</svg>
