<svg width="250" height="64" viewBox="0 0 250 64" fill="none" xmlns="http://www.w3.org/2000/svg">
<path d="M17.6522 29.5385C14.3081 29.5385 11.1011 28.2418 8.73648 25.9336C6.37189 23.6255 5.04348 20.495 5.04348 17.2308V7.38462C5.04348 6.73177 5.30916 6.10567 5.78208 5.64405C6.25499 5.18242 6.89641 4.92308 7.56521 4.92308H10.087C10.7558 4.92308 11.3972 4.66374 11.8701 4.20211C12.343 3.74048 12.6087 3.11438 12.6087 2.46154C12.6087 1.8087 12.343 1.1826 11.8701 0.720968C11.3972 0.25934 10.7558 0 10.087 0H7.56521C5.55879 0 3.63455 0.77802 2.2158 2.1629C0.797047 3.54779 0 5.42609 0 7.38462V17.2308C0.00324149 20.0117 0.697946 22.7502 2.02445 25.2113C3.35095 27.6723 5.26961 29.7823 7.61565 31.36C9.86965 33.2998 11.6976 35.6652 12.9892 38.3136C14.2808 40.962 15.0092 43.8384 15.1304 46.7692C15.1304 51.3391 16.9902 55.7218 20.3006 58.9532C23.6111 62.1846 28.1009 64 32.7826 64C37.4642 64 41.9541 62.1846 45.2646 58.9532C48.575 55.7218 50.4348 51.3391 50.4348 46.7692V43.9631C52.8119 43.364 54.8836 41.9391 56.2615 39.9557C57.6394 37.9722 58.2289 35.5663 57.9196 33.1889C57.6102 30.8115 56.4232 28.6259 54.5811 27.0417C52.7389 25.4575 50.3681 24.5834 47.913 24.5834C45.4579 24.5834 43.0871 25.4575 41.245 27.0417C39.4028 28.6259 38.2158 30.8115 37.9065 33.1889C37.5971 35.5663 38.1866 37.9722 39.5646 39.9557C40.9425 41.9391 43.0141 43.364 45.3913 43.9631V46.7692C45.3913 50.0334 44.0629 53.1639 41.6983 55.4721C39.3337 57.7802 36.1266 59.0769 32.7826 59.0769C29.4386 59.0769 26.2315 57.7802 23.8669 55.4721C21.5023 53.1639 20.1739 50.0334 20.1739 46.7692C20.3016 43.8348 21.0378 40.9562 22.3382 38.3076C23.6385 35.659 25.4759 33.2954 27.7391 31.36C30.0758 29.7768 31.9847 27.6644 33.3022 25.2037C34.6198 22.743 35.3067 20.0073 35.3043 17.2308V7.38462C35.3043 5.42609 34.5073 3.54779 33.0885 2.1629C31.6698 0.77802 29.7455 0 27.7391 0H25.2174C24.5486 0 23.9072 0.25934 23.4342 0.720968C22.9613 1.1826 22.6956 1.8087 22.6956 2.46154C22.6956 3.11438 22.9613 3.74048 23.4342 4.20211C23.9072 4.66374 24.5486 4.92308 25.2174 4.92308H27.7391C28.4079 4.92308 29.0493 5.18242 29.5223 5.64405C29.9952 6.10567 30.2609 6.73177 30.2609 7.38462V17.2308C30.2609 18.847 29.9347 20.4475 29.3011 21.9407C28.6674 23.434 27.7387 24.7907 26.5679 25.9336C25.397 27.0765 24.0071 27.9831 22.4773 28.6016C20.9475 29.2201 19.308 29.5385 17.6522 29.5385ZM47.913 39.3846C46.5754 39.3846 45.2926 38.8659 44.3467 37.9427C43.4009 37.0194 42.8695 35.7672 42.8695 34.4615C42.8695 33.1559 43.4009 31.9037 44.3467 30.9804C45.2926 30.0571 46.5754 29.5385 47.913 29.5385C49.2506 29.5385 50.5335 30.0571 51.4793 30.9804C52.4251 31.9037 52.9565 33.1559 52.9565 34.4615C52.9565 35.7672 52.4251 37.0194 51.4793 37.9427C50.5335 38.8659 49.2506 39.3846 47.913 39.3846Z" fill="#FF8B42"/>
<path d="M72.764 22.456C74.8173 22.456 76.6187 22.8573 78.168 23.66C79.736 24.4627 80.94 25.6107 81.78 27.104C82.6387 28.5787 83.068 30.296 83.068 32.256C83.068 34.216 82.6387 35.9333 81.78 37.408C80.94 38.864 79.736 39.9933 78.168 40.796C76.6187 41.5987 74.8173 42 72.764 42H65.932V22.456H72.764ZM72.624 38.668C74.6773 38.668 76.264 38.108 77.384 36.988C78.504 35.868 79.064 34.2907 79.064 32.256C79.064 30.2213 78.504 28.6347 77.384 27.496C76.264 26.3387 74.6773 25.76 72.624 25.76H69.852V38.668H72.624ZM92.8903 42.252C91.397 42.252 90.053 41.9253 88.8583 41.272C87.6636 40.6 86.721 39.6573 86.0303 38.444C85.3583 37.2307 85.0223 35.8307 85.0223 34.244C85.0223 32.6573 85.3676 31.2573 86.0583 30.044C86.7676 28.8307 87.729 27.8973 88.9423 27.244C90.1556 26.572 91.509 26.236 93.0023 26.236C94.4956 26.236 95.849 26.572 97.0623 27.244C98.2756 27.8973 99.2276 28.8307 99.9183 30.044C100.628 31.2573 100.982 32.6573 100.982 34.244C100.982 35.8307 100.618 37.2307 99.8903 38.444C99.181 39.6573 98.2103 40.6 96.9783 41.272C95.765 41.9253 94.4023 42.252 92.8903 42.252ZM92.8903 38.836C93.5996 38.836 94.2623 38.668 94.8783 38.332C95.513 37.9773 96.017 37.4547 96.3903 36.764C96.7636 36.0733 96.9503 35.2333 96.9503 34.244C96.9503 32.7693 96.5583 31.64 95.7743 30.856C95.009 30.0533 94.0663 29.652 92.9463 29.652C91.8263 29.652 90.8836 30.0533 90.1183 30.856C89.3716 31.64 88.9983 32.7693 88.9983 34.244C88.9983 35.7187 89.3623 36.8573 90.0903 37.66C90.837 38.444 91.7703 38.836 92.8903 38.836ZM102.85 34.244C102.85 32.6387 103.176 31.2387 103.83 30.044C104.483 28.8307 105.388 27.8973 106.546 27.244C107.703 26.572 109.028 26.236 110.522 26.236C112.444 26.236 114.031 26.7213 115.282 27.692C116.551 28.644 117.4 29.988 117.83 31.724H113.602C113.378 31.052 112.995 30.5293 112.454 30.156C111.931 29.764 111.278 29.568 110.494 29.568C109.374 29.568 108.487 29.9787 107.834 30.8C107.18 31.6027 106.854 32.7507 106.854 34.244C106.854 35.7187 107.18 36.8667 107.834 37.688C108.487 38.4907 109.374 38.892 110.494 38.892C112.08 38.892 113.116 38.1827 113.602 36.764H117.83C117.4 38.444 116.551 39.7787 115.282 40.768C114.012 41.7573 112.426 42.252 110.522 42.252C109.028 42.252 107.703 41.9253 106.546 41.272C105.388 40.6 104.483 39.6667 103.83 38.472C103.176 37.2587 102.85 35.8493 102.85 34.244ZM125.266 29.708V37.212C125.266 37.7347 125.387 38.1173 125.63 38.36C125.891 38.584 126.32 38.696 126.918 38.696H128.738V42H126.274C122.97 42 121.318 40.3947 121.318 37.184V29.708H119.47V26.488H121.318V22.652H125.266V26.488H128.738V29.708H125.266ZM138.445 42.252C136.952 42.252 135.608 41.9253 134.413 41.272C133.218 40.6 132.276 39.6573 131.585 38.444C130.913 37.2307 130.577 35.8307 130.577 34.244C130.577 32.6573 130.922 31.2573 131.613 30.044C132.322 28.8307 133.284 27.8973 134.497 27.244C135.71 26.572 137.064 26.236 138.557 26.236C140.05 26.236 141.404 26.572 142.617 27.244C143.83 27.8973 144.782 28.8307 145.473 30.044C146.182 31.2573 146.537 32.6573 146.537 34.244C146.537 35.8307 146.173 37.2307 145.445 38.444C144.736 39.6573 143.765 40.6 142.533 41.272C141.32 41.9253 139.957 42.252 138.445 42.252ZM138.445 38.836C139.154 38.836 139.817 38.668 140.433 38.332C141.068 37.9773 141.572 37.4547 141.945 36.764C142.318 36.0733 142.505 35.2333 142.505 34.244C142.505 32.7693 142.113 31.64 141.329 30.856C140.564 30.0533 139.621 29.652 138.501 29.652C137.381 29.652 136.438 30.0533 135.673 30.856C134.926 31.64 134.553 32.7693 134.553 34.244C134.553 35.7187 134.917 36.8573 135.645 37.66C136.392 38.444 137.325 38.836 138.445 38.836ZM153.332 28.896C153.836 28.0747 154.49 27.4307 155.292 26.964C156.114 26.4973 157.047 26.264 158.092 26.264V30.38H157.056C155.824 30.38 154.891 30.6693 154.256 31.248C153.64 31.8267 153.332 32.8347 153.332 34.272V42H149.412V26.488H153.332V28.896ZM181.013 28.336C180.565 27.5147 179.949 26.8893 179.165 26.46C178.381 26.0307 177.466 25.816 176.421 25.816C175.263 25.816 174.237 26.0773 173.341 26.6C172.445 27.1227 171.745 27.8693 171.241 28.84C170.737 29.8107 170.485 30.9307 170.485 32.2C170.485 33.5067 170.737 34.6453 171.241 35.616C171.763 36.5867 172.482 37.3333 173.397 37.856C174.311 38.3787 175.375 38.64 176.589 38.64C178.082 38.64 179.305 38.248 180.257 37.464C181.209 36.6613 181.834 35.5507 182.133 34.132H175.413V31.136H185.997V34.552C185.735 35.9147 185.175 37.1747 184.317 38.332C183.458 39.4893 182.347 40.4227 180.985 41.132C179.641 41.8227 178.129 42.168 176.449 42.168C174.563 42.168 172.855 41.748 171.325 40.908C169.813 40.0493 168.618 38.864 167.741 37.352C166.882 35.84 166.453 34.1227 166.453 32.2C166.453 30.2773 166.882 28.56 167.741 27.048C168.618 25.5173 169.813 24.332 171.325 23.492C172.855 22.6333 174.554 22.204 176.421 22.204C178.623 22.204 180.537 22.7453 182.161 23.828C183.785 24.892 184.905 26.3947 185.521 28.336H181.013ZM203.541 26.488V42H199.593V40.04C199.089 40.712 198.426 41.244 197.605 41.636C196.802 42.0093 195.925 42.196 194.973 42.196C193.76 42.196 192.686 41.944 191.753 41.44C190.82 40.9173 190.082 40.1613 189.541 39.172C189.018 38.164 188.757 36.9693 188.757 35.588V26.488H192.677V35.028C192.677 36.26 192.985 37.212 193.601 37.884C194.217 38.5373 195.057 38.864 196.121 38.864C197.204 38.864 198.053 38.5373 198.669 37.884C199.285 37.212 199.593 36.26 199.593 35.028V26.488H203.541ZM209.397 24.64C208.706 24.64 208.127 24.4253 207.661 23.996C207.213 23.548 206.989 22.9973 206.989 22.344C206.989 21.6907 207.213 21.1493 207.661 20.72C208.127 20.272 208.706 20.048 209.397 20.048C210.087 20.048 210.657 20.272 211.105 20.72C211.571 21.1493 211.805 21.6907 211.805 22.344C211.805 22.9973 211.571 23.548 211.105 23.996C210.657 24.4253 210.087 24.64 209.397 24.64ZM211.329 26.488V42H207.409V26.488H211.329ZM214.194 34.188C214.194 32.62 214.502 31.2293 215.118 30.016C215.752 28.8027 216.611 27.8693 217.694 27.216C218.776 26.5627 219.98 26.236 221.306 26.236C222.314 26.236 223.275 26.46 224.19 26.908C225.104 27.3373 225.832 27.916 226.374 28.644V21.28H230.35V42H226.374V39.704C225.888 40.4693 225.207 41.0853 224.33 41.552C223.452 42.0187 222.435 42.252 221.278 42.252C219.971 42.252 218.776 41.916 217.694 41.244C216.611 40.572 215.752 39.6293 215.118 38.416C214.502 37.184 214.194 35.7747 214.194 34.188ZM226.402 34.244C226.402 33.292 226.215 32.48 225.842 31.808C225.468 31.1173 224.964 30.5947 224.33 30.24C223.695 29.8667 223.014 29.68 222.286 29.68C221.558 29.68 220.886 29.8573 220.27 30.212C219.654 30.5667 219.15 31.0893 218.758 31.78C218.384 32.452 218.198 33.2547 218.198 34.188C218.198 35.1213 218.384 35.9427 218.758 36.652C219.15 37.3427 219.654 37.8747 220.27 38.248C220.904 38.6213 221.576 38.808 222.286 38.808C223.014 38.808 223.695 38.6307 224.33 38.276C224.964 37.9027 225.468 37.38 225.842 36.708C226.215 36.0173 226.402 35.196 226.402 34.244ZM248.598 33.908C248.598 34.468 248.561 34.972 248.486 35.42H237.146C237.239 36.54 237.631 37.4173 238.322 38.052C239.013 38.6867 239.862 39.004 240.87 39.004C242.326 39.004 243.362 38.3787 243.978 37.128H248.206C247.758 38.6213 246.899 39.8533 245.63 40.824C244.361 41.776 242.802 42.252 240.954 42.252C239.461 42.252 238.117 41.9253 236.922 41.272C235.746 40.6 234.822 39.6573 234.15 38.444C233.497 37.2307 233.17 35.8307 233.17 34.244C233.17 32.6387 233.497 31.2293 234.15 30.016C234.803 28.8027 235.718 27.8693 236.894 27.216C238.07 26.5627 239.423 26.236 240.954 26.236C242.429 26.236 243.745 26.5533 244.902 27.188C246.078 27.8227 246.983 28.728 247.618 29.904C248.271 31.0613 248.598 32.396 248.598 33.908ZM244.538 32.788C244.519 31.78 244.155 30.9773 243.446 30.38C242.737 29.764 241.869 29.456 240.842 29.456C239.871 29.456 239.05 29.7547 238.378 30.352C237.725 30.9307 237.323 31.7427 237.174 32.788H244.538Z" fill="#FF8B42"/>
</svg>
