<svg width="76" height="76" viewBox="0 0 76 76" fill="none" xmlns="http://www.w3.org/2000/svg">
<path d="M50.6667 38.0001C50.6682 38.74 50.4105 39.4571 49.9384 40.0268L34.1051 59.0268C33.5676 59.6735 32.7952 60.0802 31.9578 60.1574C31.1205 60.2346 30.2867 59.976 29.6401 59.4385C28.9934 58.901 28.5867 58.1286 28.5095 57.2912C28.4323 56.4539 28.6909 55.6202 29.2284 54.9735L43.4151 38.0001L29.7351 21.0268C29.472 20.7029 29.2756 20.3302 29.1571 19.9301C29.0385 19.53 29.0002 19.1105 29.0444 18.6956C29.0885 18.2806 29.2142 17.8785 29.4143 17.5123C29.6143 17.1462 29.8848 16.8231 30.2101 16.5618C30.5357 16.2718 30.9176 16.0522 31.3321 15.9167C31.7465 15.7811 32.1845 15.7327 32.6185 15.7743C33.0525 15.8159 33.4733 15.9467 33.8544 16.1585C34.2356 16.3703 34.5688 16.6586 34.8334 17.0051L50.1284 36.0051C50.5259 36.5912 50.7154 37.2937 50.6667 38.0001Z" fill="white"/>
</svg>
