<svg width="44" height="44" viewBox="0 0 44 44" fill="none" xmlns="http://www.w3.org/2000/svg">
<rect width="44" height="44" rx="10" fill="#FF8B42"/>
<path d="M18.0799 30C19.5586 30.0495 21.0322 29.8021 22.4137 29.2723C23.7951 28.7426 25.0563 27.9413 26.1228 26.9159C27.1893 25.8904 28.0394 24.6615 28.6229 23.3019C29.2064 21.9423 29.5114 20.4795 29.5199 19C30.1976 18.1615 30.7008 17.1959 30.9999 16.16C31.0223 16.0782 31.0204 15.9917 30.9947 15.9108C30.969 15.83 30.9205 15.7583 30.855 15.7044C30.7894 15.6505 30.7097 15.6167 30.6255 15.6071C30.5412 15.5974 30.4559 15.6123 30.3799 15.65C30.0254 15.8207 29.6263 15.8758 29.2388 15.8076C28.8513 15.7395 28.4949 15.5514 28.2199 15.27C27.8689 14.8856 27.4442 14.5756 26.9712 14.3583C26.4981 14.141 25.9862 14.0208 25.4659 14.005C24.9455 13.9891 24.4273 14.0779 23.9419 14.266C23.4564 14.4541 23.0137 14.7377 22.6399 15.1C22.1281 15.5957 21.7532 16.2153 21.5517 16.8987C21.3502 17.5821 21.3289 18.306 21.4899 19C18.1399 19.2 15.8399 17.61 13.9999 15.43C13.9446 15.3674 13.8723 15.3223 13.7918 15.3001C13.7113 15.2779 13.6261 15.2797 13.5465 15.3051C13.467 15.3306 13.3966 15.3786 13.3439 15.4434C13.2913 15.5082 13.2586 15.587 13.2499 15.67C12.8994 17.6145 13.1522 19.6196 13.9745 21.4161C14.7968 23.2126 16.1492 24.7145 17.8499 25.72C16.7096 27.0279 15.1081 27.8447 13.3799 28C13.2873 28.0154 13.2019 28.0593 13.1355 28.1257C13.0691 28.192 13.0251 28.2774 13.0097 28.37C12.9942 28.4626 13.0081 28.5577 13.0494 28.6419C13.0907 28.7262 13.1573 28.7955 13.2399 28.84C14.7434 29.5914 16.3991 29.9882 18.0799 30" fill="white"/>
</svg>
