<svg width="25" height="24" viewBox="0 0 25 24" fill="none" xmlns="http://www.w3.org/2000/svg">
<path d="M6.5 17C6.5 16.7348 6.39464 16.4804 6.20711 16.2929C6.01957 16.1054 5.76522 16 5.5 16C5.23478 16 4.98043 16.1054 4.79289 16.2929C4.60536 16.4804 4.5 16.7348 4.5 17L4.5 19C4.5 19.2652 4.60536 19.5196 4.79289 19.7071C4.98043 19.8946 5.23478 20 5.5 20L19.5 20C19.7652 20 20.0196 19.8946 20.2071 19.7071C20.3946 19.5196 20.5 19.2652 20.5 19L20.5 17C20.5 16.7348 20.3946 16.4804 20.2071 16.2929C20.0196 16.1054 19.7652 16 19.5 16C19.2348 16 18.9804 16.1054 18.7929 16.2929C18.6054 16.4804 18.5 16.7348 18.5 17L18.5 18L6.5 18L6.5 17Z" fill="white"/>
<path d="M11.92 3.18L7.91995 6C7.70436 6.15294 7.55809 6.385 7.51312 6.64548C7.46815 6.90595 7.52813 7.17363 7.67995 7.39C7.75574 7.49815 7.85219 7.59022 7.96376 7.66089C8.07532 7.73157 8.19977 7.77944 8.32994 7.80176C8.4601 7.82407 8.59339 7.82038 8.72212 7.7909C8.85085 7.76142 8.97247 7.70673 9.07995 7.63L11.5 5.91L11.5 6L11.5 14C11.5 14.2652 11.6053 14.5196 11.7928 14.7071C11.9804 14.8946 12.2347 15 12.5 15C12.7652 15 13.0195 14.8946 13.2071 14.7071C13.3946 14.5196 13.5 14.2652 13.5 14L13.5 6L15.8999 7.8C16.005 7.87879 16.1246 7.93612 16.2518 7.96871C16.379 8.00131 16.5114 8.00852 16.6414 7.98995C16.7714 7.97138 16.8964 7.92738 17.0094 7.86047C17.1224 7.79357 17.2212 7.70506 17.2999 7.6C17.4298 7.4269 17.5 7.21637 17.5 7C17.5 6.84475 17.4638 6.69164 17.3944 6.55279C17.3249 6.41393 17.2241 6.29315 17.1 6.2L13.1 3.2C12.9308 3.07193 12.7253 3.00096 12.5132 2.99737C12.3011 2.99377 12.0933 3.05773 11.92 3.18Z" fill="white"/>
</svg>
