<svg width="25" height="24" viewBox="0 0 25 24" fill="none" xmlns="http://www.w3.org/2000/svg">
<path d="M18.8121 4H17.8121V3C17.8121 2.73478 17.7068 2.48043 17.5192 2.29289C17.3317 2.10536 17.0774 2 16.8121 2C16.5469 2 16.2926 2.10536 16.105 2.29289C15.9175 2.48043 15.8121 2.73478 15.8121 3V4H9.81213V3C9.81213 2.73478 9.70678 2.48043 9.51924 2.29289C9.3317 2.10536 9.07735 2 8.81213 2C8.54692 2 8.29256 2.10536 8.10503 2.29289C7.91749 2.48043 7.81213 2.73478 7.81213 3V4H6.81213C6.01648 4 5.25342 4.31607 4.69081 4.87868C4.1282 5.44129 3.81213 6.20435 3.81213 7V19C3.81213 19.7956 4.1282 20.5587 4.69081 21.1213C5.25342 21.6839 6.01648 22 6.81213 22H18.8121C19.6078 22 20.3708 21.6839 20.9335 21.1213C21.4961 20.5587 21.8121 19.7956 21.8121 19V7C21.8121 6.20435 21.4961 5.44129 20.9335 4.87868C20.3708 4.31607 19.6078 4 18.8121 4ZM6.81213 6H7.81213V7C7.81213 7.26522 7.91749 7.51957 8.10503 7.70711C8.29256 7.89464 8.54692 8 8.81213 8C9.07735 8 9.3317 7.89464 9.51924 7.70711C9.70678 7.51957 9.81213 7.26522 9.81213 7V6H15.8121V7C15.8121 7.26522 15.9175 7.51957 16.105 7.70711C16.2926 7.89464 16.5469 8 16.8121 8C17.0774 8 17.3317 7.89464 17.5192 7.70711C17.7068 7.51957 17.8121 7.26522 17.8121 7V6H18.8121C19.0774 6 19.3317 6.10536 19.5192 6.29289C19.7068 6.48043 19.8121 6.73478 19.8121 7V11H5.81213V7C5.81213 6.73478 5.91749 6.48043 6.10503 6.29289C6.29256 6.10536 6.54692 6 6.81213 6ZM18.8121 20H6.81213C6.54692 20 6.29256 19.8946 6.10503 19.7071C5.91749 19.5196 5.81213 19.2652 5.81213 19V13H19.8121V19C19.8121 19.2652 19.7068 19.5196 19.5192 19.7071C19.3317 19.8946 19.0774 20 18.8121 20Z" fill="#FF8B42"/>
<path d="M8.81213 17C9.36442 17 9.81213 16.5523 9.81213 16C9.81213 15.4477 9.36442 15 8.81213 15C8.25985 15 7.81213 15.4477 7.81213 16C7.81213 16.5523 8.25985 17 8.81213 17Z" fill="#FF8B42"/>
<path d="M16.8121 15H12.8121C12.5469 15 12.2926 15.1054 12.105 15.2929C11.9175 15.4804 11.8121 15.7348 11.8121 16C11.8121 16.2652 11.9175 16.5196 12.105 16.7071C12.2926 16.8946 12.5469 17 12.8121 17H16.8121C17.0774 17 17.3317 16.8946 17.5192 16.7071C17.7068 16.5196 17.8121 16.2652 17.8121 16C17.8121 15.7348 17.7068 15.4804 17.5192 15.2929C17.3317 15.1054 17.0774 15 16.8121 15Z" fill="#FF8B42"/>
</svg>
