<svg width="25" height="24" viewBox="0 0 25 24" fill="none" xmlns="http://www.w3.org/2000/svg">
<path d="M12.812 2C10.7041 1.99989 8.68127 2.83176 7.18325 4.31479C5.68524 5.79782 4.83309 7.81216 4.81201 9.92C4.81201 15.4 11.862 21.5 12.162 21.76C12.3431 21.9149 12.5737 22.0001 12.812 22.0001C13.0504 22.0001 13.2809 21.9149 13.462 21.76C13.812 21.5 20.812 15.4 20.812 9.92C20.7909 7.81216 19.9388 5.79782 18.4408 4.31479C16.9428 2.83176 14.92 1.99989 12.812 2ZM12.812 19.65C11.142 18.06 6.81201 13.65 6.81201 9.92C6.81201 8.3287 7.44415 6.80258 8.56937 5.67736C9.69459 4.55214 11.2207 3.92 12.812 3.92C14.4033 3.92 15.9294 4.55214 17.0547 5.67736C18.1799 6.80258 18.812 8.3287 18.812 9.92C18.812 13.62 14.482 18.06 12.812 19.65Z" fill="#FF8B42"/>
<path d="M12.812 6C12.1198 6 11.4431 6.20527 10.8675 6.58986C10.2919 6.97444 9.84334 7.52107 9.57843 8.16061C9.31353 8.80015 9.24422 9.50388 9.37926 10.1828C9.51431 10.8618 9.84766 11.4854 10.3371 11.9749C10.8266 12.4644 11.4503 12.7977 12.1292 12.9327C12.8081 13.0678 13.5119 12.9985 14.1514 12.7336C14.7909 12.4687 15.3376 12.0201 15.7222 11.4445C16.1067 10.8689 16.312 10.1922 16.312 9.5C16.312 8.57174 15.9433 7.6815 15.2869 7.02513C14.6305 6.36875 13.7403 6 12.812 6ZM12.812 11C12.5153 11 12.2253 10.912 11.9787 10.7472C11.732 10.5824 11.5397 10.3481 11.4262 10.074C11.3127 9.79994 11.283 9.49834 11.3408 9.20736C11.3987 8.91639 11.5416 8.64912 11.7514 8.43934C11.9611 8.22956 12.2284 8.0867 12.5194 8.02882C12.8103 7.97094 13.1119 8.00065 13.386 8.11418C13.6601 8.22771 13.8944 8.41997 14.0592 8.66665C14.224 8.91332 14.312 9.20333 14.312 9.5C14.312 9.89782 14.154 10.2794 13.8727 10.5607C13.5914 10.842 13.2098 11 12.812 11Z" fill="#FF8B42"/>
</svg>
