<svg width="25" height="24" viewBox="0 0 25 24" fill="none" xmlns="http://www.w3.org/2000/svg">
<path d="M12.812 2C10.8342 2 8.90081 2.58649 7.25631 3.6853C5.61182 4.78412 4.3301 6.3459 3.57322 8.17317C2.81634 10.0004 2.61831 12.0111 3.00416 13.9509C3.39002 15.8907 4.34242 17.6725 5.74095 19.0711C7.13947 20.4696 8.9213 21.422 10.8611 21.8079C12.8009 22.1937 14.8116 21.9957 16.6389 21.2388C18.4661 20.4819 20.0279 19.2002 21.1267 17.5557C22.2255 15.9112 22.812 13.9778 22.812 12C22.812 10.6868 22.5534 9.38642 22.0508 8.17317C21.5483 6.95991 20.8117 5.85752 19.8831 4.92893C18.9545 4.00035 17.8521 3.26375 16.6389 2.7612C15.4256 2.25866 14.1252 2 12.812 2ZM12.812 20C11.2298 20 9.68305 19.5308 8.36745 18.6518C7.05186 17.7727 6.02648 16.5233 5.42098 15.0615C4.81548 13.5997 4.65705 11.9911 4.96573 10.4393C5.27442 8.88743 6.03634 7.46197 7.15516 6.34315C8.27398 5.22433 9.69945 4.4624 11.2513 4.15372C12.8031 3.84504 14.4117 4.00346 15.8735 4.60896C17.3353 5.21447 18.5847 6.23984 19.4638 7.55544C20.3428 8.87103 20.812 10.4177 20.812 12C20.812 14.1217 19.9692 16.1566 18.4689 17.6569C16.9686 19.1571 14.9337 20 12.812 20Z" fill="#FF8B42"/>
<path d="M16.812 11H13.812V8C13.812 7.73478 13.7067 7.48043 13.5191 7.29289C13.3316 7.10536 13.0772 7 12.812 7C12.5468 7 12.2924 7.10536 12.1049 7.29289C11.9174 7.48043 11.812 7.73478 11.812 8V12C11.812 12.2652 11.9174 12.5196 12.1049 12.7071C12.2924 12.8946 12.5468 13 12.812 13H16.812C17.0772 13 17.3316 12.8946 17.5191 12.7071C17.7067 12.5196 17.812 12.2652 17.812 12C17.812 11.7348 17.7067 11.4804 17.5191 11.2929C17.3316 11.1054 17.0772 11 16.812 11Z" fill="#FF8B42"/>
</svg>
